<svg width="40" height="40" viewBox="0 0 40 40" fill="none" xmlns="http://www.w3.org/2000/svg">
<circle cx="20" cy="20" r="20" fill="#00B2FF"/>
<path fill-rule="evenodd" clip-rule="evenodd" d="M30.2356 13.129C30.512 11.4939 30.4506 10.9611 29.9428 10.6039C29.8737 10.5551 29.8151 10.511 29.7517 10.4764C29.2564 10.2064 28.45 10.5125 19.7191 13.7008C16.8228 14.7583 10.5215 17.1445 9.30814 17.6432C7.22212 18.5006 6.77477 18.7606 6.54246 19.2502C6.34854 19.6569 6.3495 19.7073 6.5511 20.0834C6.66917 20.3036 6.86213 20.5438 6.97924 20.6172C7.0954 20.6906 8.32801 21.1186 9.71805 21.5683L12.2437 22.3859L13.3899 25.6257C14.0197 27.4077 14.6706 29.0498 14.8357 29.275C15.5211 30.2079 16.0193 30.0898 17.5687 28.6271C18.1428 28.0849 18.8167 27.4516 19.0644 27.2197L19.5155 26.798L21.0304 27.8883C21.2867 28.0726 21.5641 28.2741 21.8387 28.4753C22.4579 28.9288 23.0626 29.3802 23.3823 29.6274C24.6072 30.5775 25.4587 30.648 26.1499 29.8565C26.1931 29.8076 26.2306 29.7674 26.2651 29.725C26.531 29.3957 26.6347 28.9335 28.0171 23.1895C28.9223 19.4305 29.985 14.6081 30.2356 13.129ZM13.5051 22.3673C13.5243 22.0738 13.9986 21.8104 18.4154 19.0339C21.5593 17.0573 22.4435 16.5948 21.9673 17.1748C21.88 17.2817 20.5082 18.5607 18.9204 20.017C16.0452 22.6527 15.5048 23.099 15.3733 23.6449C15.3291 23.8281 15.331 24.0226 15.3061 24.315C15.1573 26.0731 15.0987 26.3517 14.8904 26.3114C14.6456 26.2641 13.533 23.2469 13.5215 22.6019C13.5195 22.5023 13.5003 22.434 13.5051 22.3673Z" fill="white"/>
</svg>
