<svg width="40" height="40" viewBox="0 0 40 40" fill="none" xmlns="http://www.w3.org/2000/svg">
<circle cx="20" cy="20" r="20" fill="#2787F5"/>
<path fill-rule="evenodd" clip-rule="evenodd" d="M19.7485 26.3369H21.0871C21.0871 26.3369 21.4915 26.2976 21.7007 26.088C21.8959 25.8915 21.882 25.5378 21.882 25.5378C21.882 25.5378 21.8541 23.848 22.6907 23.5991C23.5134 23.3502 24.5732 25.2365 25.6887 25.957C26.5393 26.5072 27.1808 26.3893 27.1808 26.3893L30.1788 26.35C30.1788 26.35 31.7405 26.2583 31.0015 25.1055C30.9457 25.0138 30.5692 24.2541 28.7704 22.6821C26.8879 21.0447 27.1389 21.3067 29.4118 18.4772C30.7923 16.748 31.3361 15.7001 31.1688 15.2416C31.0015 14.8093 29.9975 14.9272 29.9975 14.9272L26.623 14.9534C26.623 14.9534 26.372 14.9272 26.1907 15.032C26.0094 15.1368 25.8979 15.3726 25.8979 15.3726C25.8979 15.3726 25.368 16.7087 24.6569 17.8484C23.1509 20.2456 22.5513 20.3766 22.3142 20.2194C21.7425 19.8788 21.882 18.8309 21.882 18.0842C21.882 15.7656 22.2585 14.7962 21.1569 14.5473C20.7943 14.4687 20.5154 14.4032 19.5812 14.4032C18.382 14.3901 17.364 14.4032 16.7784 14.6783C16.388 14.8486 16.0951 15.2547 16.2764 15.2678C16.4995 15.294 17.0015 15.3988 17.2664 15.7394C17.615 16.1848 17.6011 17.1672 17.6011 17.1672C17.6011 17.1672 17.7963 19.905 17.1409 20.2456C16.6808 20.4814 16.0672 19.9967 14.7286 17.8222C14.0453 16.7087 13.5294 15.4774 13.5294 15.4774C13.5294 15.4774 13.4318 15.2416 13.2505 15.1237C13.0413 14.9796 12.7346 14.9272 12.7346 14.9272L9.52741 14.9403C9.52741 14.9403 9.03936 14.9534 8.87203 15.1499C8.71865 15.3202 8.85809 15.687 8.85809 15.687C8.85809 15.687 11.368 21.2019 14.2127 23.979C16.7923 26.5072 19.7485 26.3369 19.7485 26.3369Z" fill="white"/>
</svg>
