<?xml version="1.0" standalone="no"?>
<!DOCTYPE svg PUBLIC "-//W3C//DTD SVG 20010904//EN"
 "http://www.w3.org/TR/2001/REC-SVG-20010904/DTD/svg10.dtd">
<svg version="1.0" xmlns="http://www.w3.org/2000/svg"
 width="205px" height="92px" viewBox="0 0 330.000000 150.000000"
 preserveAspectRatio="xMidYMid meet">

<g transform="translate(0.000000,150.000000) scale(0.100000,-0.100000)"
fill="white" stroke="none">
<path d="M1605 1226 c-13 -9 -27 -11 -41 -6 -70 27 -107 -130 -56 -243 l21
-47 -32 -13 c-18 -8 -54 -22 -80 -32 -51 -19 -69 -45 -83 -120 l-6 -35 45 0
c36 0 46 -4 50 -20 5 -19 14 -20 190 -20 175 0 186 1 192 19 4 15 17 21 48 23
42 3 42 3 40 41 -5 72 -20 89 -114 126 l-86 33 23 42 c40 71 28 206 -23 245
-30 24 -61 27 -88 7z m74 -16 c27 -14 44 -64 37 -106 -5 -21 -3 -41 4 -49 20
-25 -53 -144 -89 -146 -11 0 -12 -2 -3 -6 7 -3 19 0 26 6 17 14 193 -45 205
-68 5 -9 11 -33 15 -53 l7 -38 -36 0 c-36 0 -36 0 -29 35 l6 35 -206 0 -206 0
1 -22 c1 -17 2 -19 6 -5 4 15 22 17 200 17 l195 0 -6 -22 c-4 -13 -9 -38 -13
-55 l-6 -33 -173 0 -173 0 -7 38 c-4 20 -9 31 -11 25 -3 -7 -20 -13 -39 -13
-32 0 -34 2 -28 28 15 63 27 75 113 109 61 23 88 30 97 22 7 -6 21 -9 31 -6
15 4 15 5 -3 6 -25 1 -45 22 -74 80 -18 36 -20 48 -11 68 14 30 14 36 1 28
-18 -11 -11 59 10 93 21 34 30 38 47 21 8 -8 17 -7 34 5 27 18 52 20 78 6z"/>
<path d="M1530 1148 c0 -8 6 -15 13 -16 6 -1 30 -4 52 -7 l40 -4 -37 8 c-20 4
-44 13 -52 21 -13 10 -16 10 -16 -2z"/>
<path d="M1654 1144 c-18 -14 -18 -15 4 -4 27 13 42 6 42 -22 0 -12 3 -19 6
-15 11 10 -5 57 -19 57 -7 0 -22 -7 -33 -16z"/>
<path d="M2139 554 c-16 -20 -6 -183 12 -195 19 -12 106 -12 94 0 -6 5 -28 11
-50 13 -37 3 -40 5 -43 37 l-3 33 40 -4 c41 -4 54 5 25 16 -9 3 -27 6 -40 6
-22 0 -24 4 -24 46 0 50 -3 49 75 27 15 -4 17 -2 9 7 -20 20 -82 30 -95 14z"/>
<path d="M827 478 c8 -105 21 -155 22 -84 1 43 3 47 17 35 8 -7 24 -30 35 -52
11 -21 23 -37 25 -34 8 8 -25 68 -53 98 l-24 27 31 22 c36 26 33 41 -4 16 -34
-22 -36 -21 -36 13 0 17 -4 33 -10 36 -6 4 -7 -24 -3 -77z"/>
<path d="M992 535 c-17 -38 -16 -160 2 -174 8 -7 32 -11 53 -9 l38 3 3 65 c3
80 -19 133 -59 138 -19 2 -28 -3 -37 -23z m74 -31 c8 -20 14 -56 12 -81 -4
-55 -24 -73 -62 -55 -24 11 -26 17 -26 72 0 70 12 100 41 100 14 0 25 -12 35
-36z"/>
<path d="M1157 553 c-4 -3 -7 -24 -7 -45 0 -41 34 -88 64 -88 24 0 39 -35 20
-50 -12 -10 -20 -10 -42 1 -45 23 -48 23 -28 0 20 -22 80 -30 91 -10 14 22 -6
59 -44 78 -40 21 -51 37 -51 77 0 20 5 24 28 24 32 0 52 -16 52 -42 0 -10 5
-18 11 -18 6 0 8 7 5 16 -3 9 -6 20 -6 25 0 10 -53 39 -73 39 -7 0 -17 -3 -20
-7z"/>
<path d="M1310 550 c0 -5 11 -10 25 -10 24 0 25 -3 26 -57 0 -56 14 -158 19
-138 4 20 -1 151 -7 174 -5 22 -4 23 23 17 27 -6 28 -5 10 9 -22 17 -96 21
-96 5z"/>
<path d="M1490 545 c-18 -21 -25 -146 -11 -173 9 -17 21 -22 52 -22 34 0 41 4
50 27 22 59 -18 183 -60 183 -10 0 -24 -7 -31 -15z m67 -35 c18 -35 17 -124
-2 -140 -23 -19 -64 -4 -71 26 -7 27 1 117 12 135 11 18 48 5 61 -21z"/>
<path d="M1647 553 c-4 -3 -7 -24 -7 -45 0 -41 34 -88 64 -88 24 0 39 -35 20
-50 -12 -10 -20 -10 -42 1 -45 23 -48 23 -28 0 20 -22 80 -30 91 -10 14 22 -6
59 -44 78 -40 21 -51 37 -51 77 0 20 5 24 28 24 32 0 52 -16 52 -42 0 -10 5
-18 11 -18 6 0 8 7 5 16 -3 9 -6 20 -6 25 0 10 -53 39 -73 39 -7 0 -17 -3 -20
-7z"/>
<path d="M1976 493 c9 -98 18 -136 32 -141 7 -2 15 9 18 27 8 37 19 33 27 -9
8 -38 27 -39 27 -1 0 15 2 57 5 92 4 44 2 58 -4 44 -5 -11 -10 -45 -11 -75
l-2 -55 -15 50 c-13 41 -17 47 -24 30 -4 -11 -8 -32 -8 -47 -1 -16 -5 -28 -10
-28 -5 0 -13 41 -17 90 -3 50 -11 90 -16 90 -5 0 -6 -29 -2 -67z"/>
<path d="M2304 547 c-3 -8 -4 -54 -2 -103 l3 -89 50 0 c47 0 50 1 53 28 2 16
-3 36 -12 46 -11 12 -13 20 -5 28 17 17 -2 64 -35 84 -37 22 -45 23 -52 6z
m69 -39 c24 -29 17 -43 -24 -43 -32 0 -34 2 -37 38 -3 36 -2 38 20 32 13 -4
31 -16 41 -27z m-19 -68 c32 -12 56 -57 38 -69 -7 -4 -26 -6 -42 -3 -23 3 -30
9 -30 27 0 13 -3 30 -6 39 -7 18 4 20 40 6z"/>
</g>
</svg>
